HIERARCHY
ROOT Hips
{
	OFFSET -3.958830 18.904000 13.208200
	CHANNELS 6 Xposition Yposition Zposition Zrotation Yrotation Xrotation 
	JOINT LHipJoint
	{
		OFFSET 0.000000 0.000000 0.000000
		CHANNELS 3 Zrotation Yrotation Xrotation
		JOINT LeftUpLeg
		{
			OFFSET 1.800000 -1.400000 0.085000
			CHANNELS 3 Zrotation Yrotation Xrotation
			JOINT LeftLeg
			{
				OFFSET 2.215000 -6.000000 0.000000
				CHANNELS 3 Zrotation Yrotation Xrotation
				JOINT LeftFoot
				{
					OFFSET 2.500000 -6.900000 0.000000
					CHANNELS 3 Zrotation Yrotation Xrotation
					JOINT LeftToeBase
					{
						OFFSET 0.200000 -0.500000 1.950000
						CHANNELS 3 Zrotation Yrotation Xrotation
						End Site
						{
							OFFSET 0.000000 0.000000 0.000000
						}
					}
				}
			}
		}
	}
	JOINT RHipJoint
	{
		OFFSET 0.000000 0.000000 0.000000
		CHANNELS 3 Zrotation Yrotation Xrotation
		JOINT RightUpLeg
		{
			OFFSET -1.800000 -1.400000 0.085000
			CHANNELS 3 Zrotation Yrotation Xrotation
			JOINT RightLeg
			{
				OFFSET -2.215000 -6.000000 0.000000
				CHANNELS 3 Zrotation Yrotation Xrotation
				JOINT RightFoot
				{
					OFFSET -2.500000 -6.900000 0.000000
					CHANNELS 3 Zrotation Yrotation Xrotation
					JOINT RightToeBase
					{
						OFFSET -0.200000 -0.500000 1.950000
						CHANNELS 3 Zrotation Yrotation Xrotation
						End Site
						{
							OFFSET 0.000000 0.000000 0.000000
						}
					}
				}
			}
		}
	}
	JOINT LowerBack
	{
		OFFSET 0.000000 0.000000 0.000000
		CHANNELS 3 Zrotation Yrotation Xrotation
		JOINT Spine
		{
			OFFSET -0.087000 1.940000 -0.288900
			CHANNELS 3 Zrotation Yrotation Xrotation
			JOINT Spine1
			{
				OFFSET 0.000000 1.950000 0.060000
				CHANNELS 3 Zrotation Yrotation Xrotation
				JOINT Neck
				{
					OFFSET 0.000000 0.000000 0.000000
					CHANNELS 3 Zrotation Yrotation Xrotation
					JOINT Neck1
					{
						OFFSET 0.000000 1.600000 0.340000
						CHANNELS 3 Zrotation Yrotation Xrotation
						JOINT Head
						{
							OFFSET 0.000000 1.667000 -0.240000
							CHANNELS 3 Zrotation Yrotation Xrotation
							End Site
							{
								OFFSET 0.000000 0.000000 0.000000
							}
						}
					}
				}
				JOINT LeftShoulder
				{
					OFFSET 0.000000 0.000000 0.000000
					CHANNELS 3 Zrotation Yrotation Xrotation
					JOINT LeftArm
					{
						OFFSET 2.700000 1.550000 -0.730000
						CHANNELS 3 Zrotation Yrotation Xrotation
						JOINT LeftForeArm
						{
							OFFSET 5.450000 0.000000 0.000000
							CHANNELS 3 Zrotation Yrotation Xrotation
							JOINT LeftHand
							{
								OFFSET 3.450000 0.000000 0.000000
								CHANNELS 3 Zrotation Yrotation Xrotation
								JOINT LeftHandIndex1
								{
									OFFSET 0.750000 0.000000 0.000000
									CHANNELS 3 Zrotation Yrotation Xrotation
									End Site
									{
										OFFSET 0.000000 0.000000 0.000000
									}
								}
							}
						}
					}
				}
				JOINT RightShoulder
				{
					OFFSET 0.000000 0.000000 0.000000
					CHANNELS 3 Zrotation Yrotation Xrotation
					JOINT RightArm
					{
						OFFSET -2.700000 1.550000 -0.730000
						CHANNELS 3 Zrotation Yrotation Xrotation
						JOINT RightForeArm
						{
							OFFSET -5.450000 0.000000 0.000000
							CHANNELS 3 Zrotation Yrotation Xrotation
							JOINT RightHand
							{
								OFFSET -3.450000 0.000000 0.000000
								CHANNELS 3 Zrotation Yrotation Xrotation
								JOINT RightHandIndex1
								{
									OFFSET -0.750000 0.000000 0.000000
									CHANNELS 3 Zrotation Yrotation Xrotation
									End Site
									{
										OFFSET 0.000000 0.000000 0.000000
									}
								}
							}
						}
					}
				}
			}
		}
	}
}
MOTION
Frames: 13
Frame Time: 0.016667
4.070920 16.419370 -16.498900 -1.973198 -9.623784 -3.877808 -14.983232 12.998028 3.384861 3.139228 -2.714895 -21.638989 -8.690811 4.850451 9.650550 -0.211061 2.795606 3.356616 0.267820 0.198590 0.299570 18.352993 -10.905153 3.221179 0.456818 -0.365392 -5.906053 9.398466 -4.715341 6.940951 -0.366567 -3.357524 3.119802 0.062250 -0.201060 0.034520 -3.788934 -1.284430 -7.907590 10.951095 1.077287 18.716586 -2.398862 3.570148 6.285842 3.488748 -0.529884 -12.832300 -6.622411 4.856750 93.697595 -1.423590 0.998520 14.632270 -34.014288 -13.805118 3.715674 -47.082045 -6.938717 -3.592527 -9.120140 -14.934686 -0.175094 -3.540613 2.923580 0.253760 -0.126240 0.222260 -0.007320 27.714872 16.959046 6.526288 45.447489 8.560639 -5.044622 3.987403 17.557372 -0.424080 2.657807 -1.199855 0.060250 -0.015690 -0.090090 -0.086090 
4.073690 16.416570 -16.498750 -1.874005 -9.495696 -3.890087 -14.978413 12.991748 3.390535 2.929912 -2.756866 -21.655809 -8.663422 4.824210 9.595131 -0.211220 2.778621 3.367408 0.264440 0.197330 0.293090 18.359462 -10.904501 3.212444 0.335468 -0.340594 -6.017236 9.540220 -4.747607 7.044912 -0.361996 -3.363148 3.122557 0.062260 -0.196230 0.029820 -3.808987 -1.282917 -7.898416 11.103691 0.996286 18.704100 -2.448919 3.506636 6.127020 3.463743 -0.722391 -12.621229 -7.299104 5.241487 93.518718 -1.624410 0.896490 14.675550 -34.029453 -13.284939 3.480364 -47.404339 -6.925195 -3.633166 -8.896725 -14.850743 -0.209650 -3.546133 2.915224 0.248910 -0.124180 0.217240 -0.004480 27.752438 16.511945 6.364025 45.371238 8.379271 -5.133917 3.936690 17.521446 -0.438290 2.660236 -1.196572 0.058370 -0.010640 -0.089500 -0.082760 
4.069370 16.414230 -16.497480 -2.017062 -9.494053 -3.854520 -14.962509 12.966844 3.387460 3.234971 -2.727764 -21.670995 -8.867474 4.833059 9.346318 -0.209902 2.804009 3.362896 0.255620 0.181350 0.282700 18.378683 -10.895892 3.217466 0.364561 -0.307334 -6.077083 9.959013 -4.821793 7.103426 -0.360925 -3.393515 3.109857 0.057930 -0.186050 0.028550 -3.862025 -1.254957 -7.894215 11.401396 0.851253 18.572051 -2.697733 3.391694 6.110718 3.402515 -0.863448 -12.549913 -7.881616 5.745427 93.351374 -1.449550 0.880330 15.111940 -33.932422 -13.133127 3.415195 -47.231441 -7.004566 -3.491331 -8.856139 -14.524199 -0.207359 -3.552180 2.920855 0.247040 -0.120610 0.205500 -0.002470 27.725677 16.313238 6.300747 45.362709 8.324551 -5.109280 3.909205 17.407521 -0.439510 2.664379 -1.201395 0.050450 -0.013460 -0.084390 -0.082470 
4.062810 16.406100 -16.495140 -1.890504 -9.327347 -3.955644 -14.955350 12.966270 3.387622 3.216153 -2.787341 -21.768938 -8.924024 4.920038 9.804822 -0.202890 2.833549 3.353441 0.251380 0.179570 0.271050 18.383858 -10.906810 3.206540 0.141391 -0.276079 -6.162593 10.215349 -4.912420 7.404210 -0.359201 -3.421156 3.102261 0.057940 -0.174860 0.025260 -3.882329 -1.244035 -7.883733 11.364751 0.790959 18.563366 -2.876920 3.321781 5.940879 3.308833 -0.812045 -12.333341 -7.870575 5.974177 93.029655 -0.817070 0.973660 15.296820 -33.893450 -12.761074 3.227698 -46.824762 -7.090165 -3.402652 -9.001538 -14.313360 -0.169742 -3.557496 2.926606 0.242690 -0.117130 0.198110 0.002870 27.832210 15.754413 6.128352 45.566047 7.976303 -5.365748 3.825514 17.846860 -0.484734 2.661554 -1.206466 0.046780 -0.012710 -0.083520 -0.078240 
4.058750 16.405870 -16.493440 -1.949698 -9.202156 -4.050639 -14.952935 12.971005 3.382519 3.319570 -2.766333 -21.656564 -9.017045 4.947903 9.798549 -0.198386 2.852673 3.349657 0.248190 0.179760 0.266250 18.386101 -10.897980 3.208361 0.083311 -0.270292 -6.121269 10.517195 -4.983068 7.482217 -0.363602 -3.443000 3.099195 0.057770 -0.169730 0.019930 -3.890935 -1.263911 -7.881924 11.503930 0.648720 18.581329 -2.902408 3.208993 5.898021 3.306256 -0.889060 -12.341814 -8.175258 6.129787 93.300031 -0.777190 0.840230 15.376080 -33.992933 -12.698405 3.165948 -46.900673 -7.134954 -3.385812 -8.494456 -14.129968 -0.228620 -3.560458 2.912632 0.242140 -0.116620 0.197200 0.004570 27.938324 15.682438 6.170213 45.430864 7.659980 -5.460491 3.492450 17.688388 -0.527194 2.661663 -1.197741 0.044390 -0.003460 -0.082090 -0.075160 
4.047250 16.404730 -16.487030 -1.708395 -9.642878 -4.097858 -14.973038 12.975918 3.384366 3.258058 -2.730253 -21.420641 -9.149377 4.957410 9.601373 -0.190412 2.863478 3.349461 0.237910 0.168970 0.260550 18.367199 -10.904930 3.198775 0.179185 -0.336197 -5.983914 9.932677 -4.877106 7.362529 -0.354294 -3.414579 3.115531 0.050020 -0.163290 0.018810 -3.826782 -1.263884 -7.877574 10.852662 0.936681 18.334856 -2.628135 3.385470 5.858205 3.287885 -0.779665 -12.350438 -7.647013 5.740675 93.423313 -0.764820 0.866740 15.666860 -33.911440 -12.506128 3.214306 -46.909976 -6.642866 -3.692040 -8.651657 -14.759900 -0.214265 -3.561299 2.909026 0.239290 -0.111550 0.193620 0.003040 27.957542 15.574032 6.158645 45.524295 7.511050 -5.345018 3.421277 17.114044 -0.515998 2.668934 -1.189150 0.042290 -0.001300 -0.077830 -0.074080 
4.034440 16.404610 -16.486550 -1.632867 -9.776840 -4.208035 -14.973438 12.990810 3.381880 3.346467 -2.742056 -21.499792 -9.094212 5.012412 9.959996 -0.189728 2.884756 3.338309 0.235560 0.163610 0.261780 18.363069 -10.915951 3.194329 0.187336 -0.334928 -5.980036 9.854237 -4.905224 7.603917 -0.353274 -3.416686 3.112920 0.045920 -0.165840 0.021040 -3.816585 -1.270180 -7.873096 10.638966 0.904772 18.294697 -2.721204 3.334603 5.787382 3.261576 -0.862061 -12.412149 -7.908387 5.883660 93.387627 -0.939370 0.869640 15.686390 -33.795578 -12.487303 3.281139 -46.715852 -6.269984 -3.857966 -8.837599 -14.926544 -0.199235 -3.557737 2.910926 0.241200 -0.112840 0.194730 -0.000470 27.906201 15.618522 6.180046 45.833861 7.394092 -5.291300 3.291722 16.620390 -0.519485 2.675647 -1.184187 0.043510 -0.003620 -0.074970 -0.075470 
4.023860 16.400720 -16.480000 -1.466575 -9.656270 -4.180580 -14.992166 12.995622 3.378374 3.122297 -2.776235 -21.474943 -8.963508 4.979242 9.966275 -0.197795 2.870329 3.343274 0.231060 0.156620 0.260760 18.348646 -10.901535 3.190790 0.128069 -0.361658 -5.869152 9.947034 -4.924765 7.518987 -0.354679 -3.428318 3.108747 0.043190 -0.163260 0.021990 -3.770725 -1.308118 -7.865321 10.201120 0.967141 18.052627 -2.458701 3.303121 5.668453 3.202460 -0.847824 -12.283537 -7.855360 5.767904 93.383167 -0.932790 0.826950 15.626660 -33.637473 -12.123177 3.138910 -47.104774 -6.263464 -3.864084 -8.620363 -14.813633 -0.241195 -3.568084 2.899765 0.244600 -0.111610 0.193400 -0.004520 27.922676 15.252933 6.070919 46.243149 7.105337 -5.369653 2.933582 16.284223 -0.565661 2.678015 -1.175506 0.040400 -0.001030 -0.068850 -0.077670 
4.019630 16.402010 -16.473410 -1.640713 -9.345094 -4.244971 -14.978957 12.990263 3.365452 3.301405 -2.722386 -21.302896 -8.978028 4.938869 9.676855 -0.204158 2.869858 3.343924 0.235120 0.158330 0.265550 18.365026 -10.889265 3.204279 0.209735 -0.408194 -5.622546 10.173180 -4.957840 7.341453 -0.366164 -3.455311 3.097834 0.045860 -0.168300 0.021510 -3.818098 -1.313589 -7.865230 10.706081 0.701560 18.110494 -2.596224 3.103344 5.566361 3.221245 -1.011014 -12.150603 -8.386505 5.849926 93.534328 -1.265620 0.498410 15.427500 -33.883979 -11.805923 2.942132 -47.041924 -6.261568 -3.902399 -8.431091 -14.791480 -0.272650 -3.567114 2.892362 0.248430 -0.115930 0.195260 -0.007030 28.106538 14.927225 6.012358 46.112290 6.733529 -5.592862 2.780090 16.537981 -0.600965 2.673016 -1.172435 0.040570 0.001970 -0.067780 -0.079380 
4.010260 16.411610 -16.468480 -1.599686 -9.295636 -4.329280 -14.986905 13.023202 3.353553 3.195736 -2.685544 -21.140807 -8.659328 4.864799 9.587565 -0.205671 2.844871 3.356288 0.224660 0.147880 0.251890 18.356567 -10.890627 3.197813 0.378053 -0.436520 -5.516627 9.900957 -4.963780 7.618679 -0.359572 -3.462666 3.096800 0.040150 -0.155910 0.027090 -3.792644 -1.364129 -7.853004 10.603417 0.626619 18.171522 -2.431100 3.022253 5.423747 3.197579 -1.013178 -11.952290 -8.429233 5.946641 93.573802 -1.198630 0.553070 15.786600 -34.179682 -11.461734 2.753201 -47.000638 -6.305595 -3.835011 -8.511262 -14.540797 -0.265192 -3.581204 2.896752 0.240090 -0.105860 0.187070 -0.006330 28.465470 14.547112 5.813151 45.581765 6.732186 -5.473442 2.699722 15.965599 -0.583608 2.680724 -1.170887 0.040730 -0.001970 -0.060200 -0.074590 
4.000090 16.410590 -16.463530 -1.475650 -9.564894 -4.312244 -14.995734 13.022400 3.355415 3.249014 -2.667968 -21.005957 -8.805386 4.871263 9.403845 -0.201031 2.857658 3.353311 0.226980 0.150680 0.251220 18.349524 -10.885732 3.187692 0.370641 -0.420472 -5.600892 9.806173 -4.945399 7.674075 -0.356082 -3.451420 3.101124 0.042580 -0.151810 0.027050 -3.766746 -1.372905 -7.844014 10.375811 0.768913 18.092003 -2.254178 3.146544 5.317226 3.154886 -1.020441 -11.761762 -8.501378 6.092820 93.462447 -0.892300 0.642380 15.768000 -34.151530 -11.011733 2.533484 -47.450848 -6.464687 -3.890005 -7.847128 -14.698633 -0.349751 -3.588405 2.893347 0.239010 -0.104630 0.185440 -0.003380 28.522067 14.131419 5.653534 45.400073 6.610801 -5.298035 2.813619 15.152889 -0.541218 2.691530 -1.166682 0.039840 -0.001160 -0.061710 -0.073640 
3.988560 16.409270 -16.452580 -1.291744 -9.765275 -4.429062 -15.011170 13.033652 3.347454 3.222169 -2.635773 -20.695661 -8.925101 4.879705 9.246827 -0.204252 2.874288 3.346008 0.235670 0.162500 0.253310 18.338412 -10.864185 3.180701 0.214730 -0.477803 -5.330577 9.863327 -4.952803 7.494611 -0.368056 -3.468752 3.094218 0.051000 -0.154520 0.024620 -3.726659 -1.434450 -7.829574 10.005912 0.775202 17.970669 -2.100037 3.101038 5.239628 3.044217 -1.205501 -11.631669 -9.351856 6.758732 93.568871 -0.739120 0.621570 15.405220 -34.004277 -10.546775 2.336935 -47.801560 -6.435250 -3.906241 -7.496348 -14.562186 -0.410326 -3.588375 2.882345 0.247880 -0.111160 0.191120 -0.001580 28.618004 13.738408 5.558736 45.478916 6.180170 -5.525007 2.975483 15.366219 -0.543397 2.685258 -1.160426 0.038290 0.006500 -0.062130 -0.074190 
3.980310 16.404870 -16.445230 -1.092005 -9.971934 -4.437034 -14.998473 13.010025 3.340703 3.082598 -2.670112 -20.637242 -8.900921 4.877794 9.301312 -0.202824 2.870680 3.350969 0.227870 0.154690 0.248880 18.353475 -10.884995 3.172059 -0.006404 -0.479337 -5.361994 9.921516 -4.972832 7.470905 -0.364517 -3.485327 3.090939 0.046790 -0.149300 0.025620 -3.766747 -1.363494 -7.805546 10.021263 0.831235 17.709882 -2.456884 3.130635 5.182691 3.078887 -1.237229 -11.447837 -9.482180 6.871187 93.454497 -1.005170 0.874380 15.644680 -33.902159 -10.155499 2.109971 -47.618166 -6.678678 -3.700057 -7.981213 -14.181434 -0.330911 -3.601550 2.879434 0.241460 -0.103670 0.185840 -0.002120 28.401808 13.283879 5.423141 45.988084 6.015648 -5.483072 3.268847 15.129863 -0.516878 2.690856 -1.159594 0.036740 0.004530 -0.059800 -0.073730 
